<svg preserveAspectRatio="none" width="100%" height="100%" overflow="visible" style="display: block;" viewBox="0 0 208 204" fill="none" xmlns="http://www.w3.org/2000/svg">
<path id="Vector" d="M195.202 12.8691L192.786 10.4739C181.391 -0.824619 162.884 -0.824619 151.443 10.4739L123.546 38.1325C112.151 49.431 93.6441 49.431 82.2028 38.1325L54.3062 10.4739C42.9105 -0.824619 24.4039 -0.824619 12.9626 10.4739L10.5468 12.8691C-0.84892 24.1676 -0.84892 42.5163 10.5468 53.86L38.4434 81.5187C49.8391 92.8171 49.8391 111.166 38.4434 122.51L10.5923 150.123C-0.848921 161.467 -0.803338 179.861 10.6379 191.159L13.0538 193.554C24.4951 204.853 43.0017 204.808 54.3973 193.464C58.7733 189.125 63.5139 184.425 68.2089 179.725C73.0863 174.889 77.9636 170.053 82.4307 165.579C93.6441 154.462 111.74 154.236 123.227 165.037C128.059 169.556 133.347 174.483 138.771 179.409C145.38 185.239 152.628 190.888 159.192 195.814C171.591 205.034 189.094 203.09 199.077 191.385C209.06 179.68 208.148 162.325 196.98 151.705C191.966 146.959 186.496 141.672 181.117 136.384L167.169 122.555C155.773 111.256 155.773 92.9075 167.169 81.5638L195.066 53.9052C206.461 42.6067 206.461 24.258 195.066 12.9143L195.202 12.8691Z" stroke="var(--stroke-0, #201B20)" stroke-width="4"/>
</svg>
