<svg width="78" height="78" viewBox="0 0 78 78" fill="none" xmlns="http://www.w3.org/2000/svg">
<path d="M75.6744 38.6448C59.1576 37.1204 51.506 35.744 46.8736 31.1264C42.256 26.5088 40.8648 18.8572 39.3552 2.3256C39.3404 2.148 39.1776 2 39 2C38.8224 2 38.6596 2.148 38.6448 2.3256C37.1204 18.8424 35.744 26.494 31.1264 31.1264C26.5088 35.744 18.8572 37.1352 2.3256 38.6448C2.148 38.6596 2 38.8224 2 39C2 39.1776 2.148 39.3404 2.3256 39.3552C18.8424 40.8796 26.494 42.256 31.1264 46.8736C35.744 51.4912 37.1352 59.1428 38.6448 75.6744C38.6596 75.852 38.8224 76 39 76C39.1776 76 39.3404 75.852 39.3552 75.6744C40.8796 59.1576 42.256 51.506 46.8736 46.8736C51.4912 42.256 59.1428 40.8648 75.6744 39.3552C75.852 39.3404 76 39.1776 76 39C76 38.8224 75.852 38.6596 75.6744 38.6448Z" stroke="#201B20" stroke-width="4"/>
</svg>
