<svg width="118" height="118" viewBox="0 0 118 118" fill="none" xmlns="http://www.w3.org/2000/svg">
<path d="M55.3044 118L58.1617 70.8661H60.2397L63.0971 118H55.3044Z" fill="#201B20"/>
<path d="M33.0126 112.096L53.675 69.6382L55.6114 70.4174L40.2149 115.072L33.0126 112.096Z" fill="#201B20"/>
<path d="M14.6644 98.0933L50.0148 66.7809L51.5025 68.2686L20.1665 103.619L14.6644 98.0933Z" fill="#201B20"/>
<path d="M3.06984 78.1629L47.7242 62.7665L48.5271 64.6792L6.06884 85.3652L3.06984 78.1629Z" fill="#201B20"/>
<path d="M0 55.3044L47.1339 58.1617V60.2397L0 63.0971V55.3044Z" fill="#201B20"/>
<path d="M5.90354 33.0126L48.3618 53.675L47.5589 55.6114L2.92816 40.2149L5.90354 33.0126Z" fill="#201B20"/>
<path d="M19.8831 14.6644L51.2191 50.0148L49.7314 51.5025L14.381 20.1665L19.8831 14.6644Z" fill="#201B20"/>
<path d="M39.8371 3.06984L55.2335 47.7242L53.3208 48.5271L32.6348 6.06884L39.8371 3.06984Z" fill="#201B20"/>
<path d="M62.6956 0L59.8383 47.1339H57.7603L54.9029 0H62.6956Z" fill="#201B20"/>
<path d="M84.9874 5.90354L64.325 48.3618L62.3886 47.5589L77.7851 2.92816L84.9874 5.90354Z" fill="#201B20"/>
<path d="M103.336 19.8831L67.9852 51.2191L66.4975 49.7314L97.8099 14.381L103.336 19.8831Z" fill="#201B20"/>
<path d="M114.93 39.8371L70.2758 55.2335L69.4729 53.3208L111.931 32.6348L114.93 39.8371Z" fill="#201B20"/>
<path d="M118 62.6956L70.8661 59.8383V57.7603L118 54.9029V62.6956Z" fill="#201B20"/>
<path d="M112.096 84.9874L69.6382 64.325L70.4174 62.3886L115.072 77.7851L112.096 84.9874Z" fill="#201B20"/>
<path d="M98.0933 103.336L66.7809 67.9852L68.2686 66.4975L103.619 97.8099L98.0933 103.336Z" fill="#201B20"/>
<path d="M78.1629 114.93L62.7665 70.2758L64.6792 69.4729L85.3652 111.931L78.1629 114.93Z" fill="#201B20"/>
</svg>
