<svg width="27" height="27" viewBox="0 0 27 27" fill="none" xmlns="http://www.w3.org/2000/svg">
<path d="M21.1105 20.6585H5.88845V8.69831H21.1105M17.8486 1.08728V3.26186H9.15032V1.08728H6.97574V3.26186H5.88845C4.68156 3.26186 3.71387 4.22955 3.71387 5.43644V20.6585C3.71387 21.2352 3.94297 21.7884 4.35079 22.1962C4.7586 22.604 5.31171 22.8331 5.88845 22.8331H21.1105C21.6873 22.8331 22.2404 22.604 22.6482 22.1962C23.056 21.7884 23.2851 21.2352 23.2851 20.6585V5.43644C23.2851 4.85971 23.056 4.30659 22.6482 3.89878C22.2404 3.49097 21.6873 3.26186 21.1105 3.26186H20.0232V1.08728M18.9359 13.0475H13.4995V18.4839H18.9359V13.0475Z" fill="white"/>
</svg>
