<svg width="38" height="38" viewBox="0 0 38 38" fill="none" xmlns="http://www.w3.org/2000/svg">
<circle cx="19" cy="19" r="19" fill="#201B20"/>
<path d="M28.4861 29.739C26.0002 29.739 23.5441 29.1973 21.1179 28.1138C18.6916 27.0304 16.4841 25.4939 14.4954 23.5043C12.5067 21.5148 10.9706 19.3073 9.88712 16.8819C8.80366 14.4564 8.26154 12.0003 8.26074 9.51364C8.26074 9.15567 8.38007 8.85736 8.61871 8.61871C8.85736 8.38007 9.15567 8.26074 9.51364 8.26074H14.3463C14.6247 8.26074 14.8733 8.35541 15.092 8.54473C15.3108 8.73406 15.4401 8.95759 15.4798 9.21533L16.2554 13.3917C16.2952 13.7099 16.2853 13.9783 16.2256 14.1971C16.1659 14.4159 16.0566 14.6048 15.8975 14.7639L13.0039 17.6873C13.4016 18.4231 13.8737 19.1339 14.4202 19.8196C14.9667 20.5053 15.5685 21.1668 16.2256 21.804C16.8421 22.4205 17.4884 22.9924 18.1646 23.5199C18.8408 24.0473 19.5567 24.5293 20.3124 24.9661L23.1165 22.162C23.2955 21.983 23.5294 21.8489 23.8182 21.7598C24.1069 21.6707 24.3901 21.6457 24.6677 21.6847L28.7844 22.5199C29.0628 22.5995 29.2915 22.7439 29.4705 22.9531C29.6495 23.1623 29.739 23.3958 29.739 23.6535V28.4861C29.739 28.8441 29.6197 29.1424 29.381 29.381C29.1424 29.6197 28.8441 29.739 28.4861 29.739Z" fill="white"/>
</svg>