<svg width="73" height="146" viewBox="0 0 73 146" fill="none" xmlns="http://www.w3.org/2000/svg">
<path d="M68.4275 146L71.9628 87.6818H74.5339L78.0692 146H68.4275Z" fill="white"/>
<path d="M40.8461 138.696L66.4114 86.1625L68.8073 87.1267L49.7575 142.377L40.8461 138.696Z" fill="white"/>
<path d="M18.1441 121.37L61.8827 82.6272L63.7234 84.4679L24.9518 128.207L18.1441 121.37Z" fill="white"/>
<path d="M3.79828 96.71L59.0486 77.6602L60.042 80.0268L7.5089 105.621L3.79828 96.71Z" fill="white"/>
<path d="M0 68.4275L58.3182 71.9628V74.5339L0 78.0692V68.4275Z" fill="white"/>
<path d="M7.30438 40.8461L59.8375 66.4114L58.8441 68.8073L3.62297 49.7575L7.30438 40.8461Z" fill="white"/>
<path d="M24.6012 18.1441L63.3728 61.8827L61.5321 63.7234L17.7935 24.9518L24.6012 18.1441Z" fill="white"/>
<path d="M49.29 3.79828L68.3398 59.0486L65.9732 60.042L40.3786 7.5089L49.29 3.79828Z" fill="white"/>
<path d="M77.5725 0L74.0372 58.3182H71.4661L67.9308 0H77.5725Z" fill="white"/>
<path d="M105.154 7.30438L79.5885 59.8375L77.1927 58.8441L96.2425 3.62297L105.154 7.30438Z" fill="white"/>
<path d="M127.856 24.6012L84.1173 63.3728L82.2766 61.5321L121.019 17.7935L127.856 24.6012Z" fill="white"/>
<path d="M142.202 49.29L86.9514 68.3398L85.958 65.9732L138.491 40.3786L142.202 49.29Z" fill="white"/>
<path d="M146 77.5725L87.6818 74.0372V71.4661L146 67.9308V77.5725Z" fill="white"/>
<path d="M138.696 105.154L86.1625 79.5885L87.1267 77.1927L142.377 96.2425L138.696 105.154Z" fill="white"/>
<path d="M121.37 127.856L82.6272 84.1173L84.4679 82.2766L128.207 121.019L121.37 127.856Z" fill="white"/>
<path d="M96.71 142.202L77.6602 86.9514L80.0268 85.958L105.621 138.491L96.71 142.202Z" fill="white"/>
</svg>
