<svg width="185" height="83" viewBox="0 0 185 83" fill="none" xmlns="http://www.w3.org/2000/svg">
<path d="M4.72773 82.8332C4.43072 82.8332 4.13371 82.7747 3.85021 82.6532C2.97269 82.2797 2.42366 81.3976 2.48216 80.4436L4.89871 40.7618L0.344619 33.5122C-0.0558892 32.8731 -0.109871 32.0812 0.196136 31.3926C0.502142 30.7041 1.13665 30.2181 1.87917 30.0966L16.248 27.6981L17.2335 11.5022C17.2965 10.4582 18.075 9.59419 19.11 9.41869L60.4343 2.51554C60.8529 2.44803 61.2669 2.41204 61.6719 2.41204C63.1524 2.41204 64.5114 2.88006 65.6049 3.76657L65.659 3.81156C65.6994 3.84306 65.7355 3.87458 65.7715 3.91058L65.8254 3.96007C67.1665 5.1886 67.846 6.94365 67.729 8.89669L67.099 19.2064L181.883 0.0315039C182.009 0.00900348 182.13 0 182.252 0C182.994 0 183.696 0.368994 184.119 0.999007C184.61 1.73252 184.628 2.68656 184.164 3.43808L178.454 12.6452L176.024 52.4801C175.97 53.3396 175.434 54.0911 174.642 54.4196C174.363 54.5366 174.071 54.5906 173.778 54.5906C173.243 54.5906 172.712 54.3971 172.293 54.0281L160.539 43.6914C160.066 43.2729 159.792 42.6789 159.774 42.0534L20.289 65.3548L20.2395 66.2008C20.208 66.7138 20.001 67.1999 19.6545 67.5824L6.38824 82.0997C5.95173 82.5767 5.34424 82.8332 4.72773 82.8332Z" fill="white"/>
<path d="M171.91 3.97414L164.265 5.25215L163.212 5.42766L152.893 7.1512L151.993 7.29969L131.486 10.7243L126.302 11.5928L64.6733 21.889L65.4743 8.75774C65.5508 7.47971 65.1413 6.39067 64.2908 5.61215L64.2368 5.56266L64.1828 5.51767C63.2828 4.78865 62.1128 4.51863 60.8032 4.73913L58.8862 5.05865L19.4789 11.6423L18.3809 29.6247L2.24805 32.3202L7.18914 40.1819L4.7276 80.5837L17.9939 66.0664L18.1559 63.4338L92.3264 51.0406L92.7314 50.9731L105.282 48.876L105.687 48.8086L124.232 45.7125L129.416 44.8439L147.961 41.7479L149.923 41.4194L161.142 39.5474L162.195 39.3718L162.033 42.0044L173.787 52.3411L176.249 11.9393L182.256 2.24609L171.915 3.97414H171.91Z" fill="#201B20"/>
<path d="M30.3779 12.8936C28.3393 13.2356 26.8093 13.4876 25.7878 13.6586C24.4378 13.8836 23.4252 14.0546 22.7502 14.1671C22.6692 15.4856 22.6107 16.4757 22.5702 17.1327C22.4892 18.4512 22.4307 19.4457 22.3902 20.1207C22.3092 21.4393 22.2507 22.4293 22.2102 23.0863C22.1292 24.4183 22.0572 25.5749 21.9987 26.5559C21.9402 27.5504 21.8862 28.3784 21.8457 29.0399C23.1957 28.8149 24.2083 28.6439 24.8833 28.5314C25.0453 25.8808 25.1668 23.8963 25.2478 22.5778C27.2863 22.2358 28.8163 21.9838 29.8379 21.8128C30.2519 21.7453 30.6164 21.5428 30.9404 21.2098C31.2464 20.8678 31.4129 20.4852 31.4399 20.0667C31.6019 17.4297 31.7234 15.4451 31.8044 14.1131C31.8269 13.7081 31.7054 13.3841 31.4354 13.1366C31.1474 12.9026 30.8009 12.8216 30.3869 12.8936H30.3779ZM25.4278 19.6122C25.5088 18.2802 25.5718 17.2857 25.6078 16.6242C26.9713 16.3947 27.9928 16.2282 28.6678 16.1112C28.6003 17.2002 28.5508 18.0237 28.5193 18.5727C28.5058 18.8022 28.4968 18.9777 28.4878 19.0992C27.1378 19.3242 26.1163 19.4952 25.4278 19.6122Z" fill="#FF4405"/>
<path d="M40.458 11.2102C37.7444 11.6647 35.7104 12.0022 34.3603 12.2272C33.9328 12.2992 33.5638 12.4972 33.2578 12.8302C32.9383 13.1767 32.7628 13.5502 32.7403 13.9552C32.6278 15.8138 32.5288 17.4428 32.4433 18.8378C32.3578 20.2239 32.2903 21.3804 32.2318 22.3074C32.0968 24.553 31.9933 26.236 31.9258 27.352C33.2758 27.127 34.2883 26.956 34.9633 26.8435C35.1253 24.1929 35.2469 22.2084 35.3279 20.8899C36.6914 20.6604 37.7129 20.4939 38.3879 20.3769C38.2259 23.0274 38.1044 25.012 38.0234 26.3305C39.3735 26.1055 40.386 25.9345 41.061 25.822C41.4255 19.8729 41.6955 15.4088 41.88 12.4207C41.9025 12.0157 41.781 11.6917 41.511 11.4442C41.2275 11.2102 40.8765 11.1292 40.4625 11.2012L40.458 11.2102ZM38.7479 14.4323C38.6804 15.5213 38.6309 16.3448 38.5994 16.8938C38.5859 17.1233 38.5769 17.2988 38.5679 17.4203C37.2179 17.6453 36.1964 17.8163 35.5079 17.9333C35.5889 16.6013 35.6519 15.6068 35.6879 14.9453C37.0514 14.7158 38.0729 14.5448 38.7479 14.4323Z" fill="#FF4405"/>
<path d="M42.843 11.9124C42.8115 12.4119 42.7755 13.0285 42.7305 13.771C43.239 13.6855 44.2515 13.5145 45.768 13.2625C45.6465 15.256 45.4035 19.2251 45.0435 25.1697C45.552 25.0842 46.5735 24.9132 48.1036 24.6567C48.2251 22.6767 48.4681 18.7076 48.8281 12.7495C49.3366 12.664 50.3491 12.493 51.8657 12.241C51.9062 11.5839 51.9647 10.5939 52.0457 9.27539C50.5291 9.5274 47.4826 10.0359 42.9105 10.8009C42.897 11.0439 42.8745 11.4129 42.843 11.9124Z" fill="#FF4405"/>
<path d="M61.6671 8.08677C61.3791 7.85276 61.0326 7.77177 60.6186 7.84377C57.905 8.29828 55.871 8.63579 54.521 8.8608C54.0935 8.9328 53.7289 9.13079 53.4184 9.46379C53.0989 9.8103 52.9234 10.1838 52.9009 10.5888C52.8019 12.2449 52.7119 13.6984 52.6354 14.9494C52.5589 16.1734 52.5004 17.195 52.4464 18.0185C52.3249 20.012 52.2349 21.5061 52.1719 22.5006C52.1449 22.9191 52.2754 23.2431 52.5634 23.4726C52.8334 23.7201 53.1844 23.8101 53.6119 23.7381C56.312 23.2881 58.3461 22.9461 59.7096 22.7211C60.1236 22.6536 60.4926 22.4421 60.8121 22.0956C61.1181 21.7625 61.2846 21.389 61.3116 20.975C61.6356 15.6874 61.8741 11.7183 62.0361 9.06778C62.0586 8.66278 61.9371 8.33878 61.6671 8.09127V8.08677ZM55.304 20.516C55.4255 18.5225 55.5155 17.033 55.5785 16.0339C55.7 14.0539 55.79 12.5689 55.8485 11.5743C57.212 11.3448 58.2335 11.1784 58.9086 11.0613C58.6835 14.7739 58.5125 17.5595 58.4 19.418C58.3865 19.6745 58.373 19.868 58.364 20.003C57.014 20.228 55.9925 20.399 55.304 20.516Z" fill="#FF4405"/>
<path d="M25.0095 31.8597C23.3985 32.1297 21.9359 32.3727 20.5859 32.5978C17.7464 33.0703 15.4738 33.4528 13.7908 33.7318L8.20166 34.6678L10.7082 38.6549C10.5417 41.3504 10.3977 43.776 10.2672 45.9C10.1097 48.4516 9.98368 50.5801 9.87568 52.2856C9.62368 56.4212 8.68768 71.7485 8.68768 71.7485L14.6143 65.2639C14.6143 65.2639 15.4153 52.1101 15.5638 49.6846C18.0749 49.2661 19.9514 48.9511 21.1934 48.7441C20.8964 53.6222 20.6714 57.2717 20.5274 59.6973C23.0115 59.2833 24.8745 58.9728 26.1165 58.7613C26.7825 47.8216 27.2866 39.5999 27.6196 34.1053C27.6646 33.3628 27.4396 32.7642 26.94 32.3097C26.4135 31.8822 25.77 31.7337 25.0095 31.8597ZM21.8639 37.7863C21.7424 39.7934 21.6479 41.3009 21.5894 42.3179C21.5624 42.7409 21.5444 43.0605 21.5309 43.281C19.0469 43.695 17.1703 44.01 15.9013 44.2215C16.0498 41.7689 16.1623 39.9374 16.2343 38.7269C18.7454 38.3084 20.6219 37.9933 21.8639 37.7863Z" fill="#FF4405"/>
<path d="M43.5543 28.7597C39.8013 29.3853 36.9887 29.8578 35.1122 30.1683C32.6281 30.5823 30.7651 30.8928 29.5231 31.1043C29.3746 33.5298 29.2441 35.6584 29.1316 37.4899C29.0191 39.3215 28.9291 40.8425 28.8526 42.0575C28.704 44.4831 28.596 46.3011 28.5195 47.5161C28.2225 52.3942 28.002 56.0438 27.8535 58.4694C30.3376 58.0553 32.2006 57.7448 33.4426 57.5333C33.7397 52.6552 33.9647 49.0057 34.1087 46.5801C36.6197 46.1616 38.4962 45.8466 39.7383 45.6396C39.4413 50.5177 39.2162 54.1673 39.0722 56.5928C41.5563 56.1788 43.4193 55.8683 44.6614 55.6568C44.9584 50.7787 45.1789 47.1291 45.3274 44.7036C45.3724 43.9385 45.1474 43.3355 44.6479 42.9035C44.1213 42.4535 43.4824 42.2915 42.7218 42.4175C43.4824 42.2915 44.1574 41.9225 44.7469 41.3105C45.3139 40.676 45.6199 39.9875 45.6649 39.245C45.8899 35.5819 46.0564 32.8323 46.1689 31.0008C46.2139 30.2583 45.9889 29.6598 45.4894 29.2052C44.9629 28.7777 44.3194 28.6292 43.5588 28.7552L43.5543 28.7597ZM34.4462 41.126C34.5947 38.6735 34.7072 36.8419 34.7792 35.6314C37.2902 35.2129 39.1668 34.8979 40.4088 34.6909C40.2873 36.6979 40.1928 38.2054 40.1343 39.2225C40.1073 39.6455 40.0893 39.965 40.0758 40.1855C37.5917 40.5995 35.7152 40.9145 34.4462 41.126Z" fill="#FF4405"/>
<path d="M62.0949 25.6638C57.0998 26.4963 53.3602 27.1219 50.8761 27.5359C50.0886 27.6664 49.4136 28.0354 48.8511 28.6474C48.2616 29.2864 47.9421 29.9749 47.8971 30.7174C47.7126 33.764 47.5506 36.4371 47.4065 38.7366C47.267 40.9912 47.1545 42.8722 47.0645 44.3797C46.8395 48.0428 46.673 50.7923 46.5605 52.6239C46.5155 53.3934 46.7541 53.9874 47.2806 54.4149C47.7801 54.8694 48.4236 55.0314 49.2066 54.9009C54.1747 54.0729 57.9143 53.4474 60.4253 53.0289C61.1858 52.9029 61.8608 52.5204 62.4503 51.8814C63.0129 51.2738 63.3189 50.5853 63.3684 49.8158C63.5169 47.3903 63.6249 45.5722 63.7014 44.3572C61.2173 44.7712 59.3543 45.0817 58.1123 45.2932C58.0403 46.5082 57.9818 47.4218 57.9458 48.0428C55.4617 48.4568 53.5852 48.7718 52.3162 48.9833C52.7617 41.6796 53.0947 36.1985 53.3197 32.5355C55.8307 32.117 57.7073 31.802 58.9493 31.595C58.8773 32.81 58.8188 33.7235 58.7828 34.3445C61.2668 33.9305 63.1299 33.62 64.3719 33.4085C64.5204 30.9829 64.6329 29.1514 64.7049 27.9139C64.7499 27.1713 64.5249 26.5728 64.0254 26.1183C63.4989 25.6908 62.8554 25.5423 62.0949 25.6683V25.6638Z" fill="#FF4405"/>
<path d="M77.1566 33.9888C76.2205 34.1463 74.344 34.4569 71.5269 34.9294C71.6394 33.0978 71.86 29.4482 72.193 23.9761C71.2795 24.1291 69.4164 24.4397 66.6039 24.9122C66.4959 26.7212 66.2708 30.3708 65.9378 35.8654C65.8838 36.7564 65.7713 38.5745 65.6048 41.324C65.5508 42.242 65.4653 43.6145 65.3528 45.4461C65.2403 47.2776 65.1008 49.5547 64.9343 52.2772C66.1764 52.0702 68.0394 51.7597 70.5234 51.3412C70.6719 48.9156 70.8924 45.2661 71.1894 40.388C72.4585 40.1765 74.3305 39.8615 76.8191 39.4475C76.6706 41.873 76.4501 45.5271 76.153 50.4007C77.3951 50.1937 79.2581 49.8832 81.7422 49.4647C81.8907 47.0391 82.1112 43.3896 82.4082 38.5115C82.4802 37.2964 82.5927 35.4784 82.7412 33.0528C82.8897 30.6003 83.1147 26.9507 83.4072 22.0996C82.1652 22.3066 80.3021 22.6171 77.8181 23.0356C77.7056 24.8447 77.4851 28.4942 77.1521 33.9888H77.1566Z" fill="#FF4405"/>
<path d="M84.1047 38.9294C83.8257 43.4835 83.6188 46.899 83.4792 49.1761C86.2918 48.708 88.1593 48.3931 89.0684 48.2401C89.2754 44.8245 89.4149 42.5474 89.4869 41.4089C90.1124 31.1352 90.5309 24.2906 90.7379 20.875C87.9478 21.343 86.0848 21.6535 85.1488 21.811C84.7303 28.6691 84.3837 34.3753 84.1047 38.9294Z" fill="#FF4405"/>
<path d="M92.3488 22.631C92.2948 23.5445 92.2228 24.6875 92.1418 26.0466C93.0779 25.8891 94.9409 25.5785 97.731 25.1105C97.5059 28.7736 97.0604 36.0773 96.3944 47.017C97.3304 46.8595 99.207 46.549 102.024 46.0765C102.245 42.4359 102.69 35.1368 103.361 24.17C104.297 24.0125 106.16 23.702 108.95 23.234C109.022 22.019 109.134 20.2009 109.283 17.7754C106.493 18.2434 100.89 19.1794 92.4748 20.5834C92.4478 21.029 92.4073 21.7085 92.3488 22.6265V22.631Z" fill="#FF4405"/>
<path d="M111.015 17.4916C110.961 18.4097 110.849 20.2277 110.682 22.9503C110.628 23.8683 110.516 25.6998 110.349 28.4449C110.295 29.3359 110.183 31.1539 110.016 33.9035C109.962 34.8215 109.85 36.653 109.683 39.3981C109.647 39.9921 109.602 40.7481 109.544 41.6616C109.49 42.5797 109.422 43.6417 109.35 44.8567C110.592 44.6497 112.455 44.3392 114.939 43.9207C117.45 43.5022 121.19 42.8767 126.158 42.0486C126.23 40.8336 126.342 39.0156 126.491 36.59C124.007 37.004 120.267 37.6295 115.272 38.4621C115.349 37.2245 115.461 35.393 115.605 32.9675C117.482 32.6525 120.294 32.1844 124.047 31.5589C124.119 30.3439 124.232 28.5259 124.38 26.1003C122.504 26.4153 119.691 26.8833 115.938 27.5089C116.015 26.2713 116.127 24.4398 116.271 22.0142C118.782 21.5957 122.522 20.9702 127.49 20.1422C127.544 19.2287 127.656 17.4061 127.823 14.6836C125.973 14.9941 122.234 15.6196 116.604 16.5556C115.691 16.7086 113.828 17.0191 111.015 17.4916Z" fill="#FF4405"/>
<path d="M140.932 12.4941C138.605 17.6872 136.864 21.5887 135.698 24.2123C135.167 24.3023 134.758 24.3698 134.483 24.4148C134.78 19.5367 135.001 15.8871 135.149 13.4616C132.665 13.8756 130.802 14.1861 129.56 14.3976C129.191 20.4862 128.863 25.8098 128.588 30.3639C128.309 34.918 128.08 38.7206 127.895 41.7626C130.379 41.3486 132.242 41.0381 133.484 40.8266C133.781 35.9485 134.002 32.299 134.15 29.8734C136.661 29.4549 138.538 29.1399 139.78 28.9329C139.483 33.811 139.262 37.4606 139.114 39.8861C141.598 39.4721 143.461 39.1616 144.703 38.9501C145.072 32.8615 145.351 28.2939 145.54 25.2473C145.585 24.5048 145.36 23.9063 144.86 23.4518C144.334 23.0243 143.69 22.8758 142.93 23.0018C142.219 23.1188 141.688 23.2088 141.332 23.2673C143.96 18.0022 145.936 14.0601 147.25 11.4365C144.437 11.9045 142.331 12.2601 140.936 12.4896L140.932 12.4941Z" fill="#FF4405"/>
<path d="M165.286 16.5481C165.435 14.1226 165.547 12.291 165.619 11.0535C165.664 10.311 165.439 9.71249 164.94 9.25798C164.413 8.83047 163.77 8.68197 163.009 8.80797C158.014 9.64049 154.275 10.266 151.791 10.68C151.003 10.8105 150.328 11.1795 149.766 11.7915C149.176 12.4305 148.857 13.1191 148.812 13.8616C148.627 16.9081 148.465 19.5812 148.321 21.8807C148.182 24.1353 148.069 26.0163 147.979 27.5238C147.754 31.1869 147.588 33.9365 147.475 35.768C147.43 36.5375 147.669 37.1315 148.195 37.5591C148.695 38.0136 149.338 38.1756 150.121 38.045C155.089 37.217 158.829 36.5915 161.34 36.173C162.1 36.047 162.775 35.6645 163.369 35.0255C163.932 34.418 164.238 33.7295 164.287 32.96C164.436 30.5344 164.544 28.7164 164.62 27.5013C162.136 27.9153 160.273 28.2259 159.031 28.4374C158.959 29.6524 158.901 30.5659 158.865 31.1869C156.381 31.6009 154.504 31.9159 153.235 32.1274C153.681 24.8238 154.014 19.3427 154.239 15.6796C156.75 15.2611 158.622 14.9461 159.868 14.7391C159.796 15.9541 159.738 16.8676 159.702 17.4886C162.186 17.0746 164.049 16.7641 165.291 16.5526L165.286 16.5481Z" fill="#FF4405"/>
<path d="M173.112 7.11587C170.322 7.58388 168.459 7.89439 167.523 8.05189C167.104 14.91 166.758 20.6161 166.479 25.1702C166.2 29.7243 165.57 40.043 165.57 40.043L170.821 44.6601C170.821 44.6601 171.789 28.7883 171.856 27.6498C172.279 20.7331 172.603 15.3735 172.837 11.5665L175.884 6.65234L173.107 7.11587H173.112Z" fill="#FF4405"/>
</svg>
