<svg width="27" height="28" viewBox="0 0 27 28" fill="none" xmlns="http://www.w3.org/2000/svg">
<path d="M4.49993 9.74996L3.70455 10.5453L2.90918 9.74996L3.70455 8.95459L4.49993 9.74996ZM10.1249 23.25C9.82656 23.25 9.54041 23.1314 9.32943 22.9205C9.11846 22.7095 8.99993 22.4233 8.99993 22.125C8.99993 21.8266 9.11846 21.5404 9.32943 21.3295C9.54041 21.1185 9.82656 21 10.1249 21V23.25ZM9.32955 16.1703L3.70455 10.5453L5.2953 8.95459L10.9203 14.5796L9.32955 16.1703ZM3.70455 8.95459L9.32955 3.32959L10.9203 4.92034L5.2953 10.5453L3.70455 8.95459ZM4.49993 8.62496H16.3124V10.875H4.49993V8.62496ZM16.3124 23.25H10.1249V21H16.3124V23.25ZM23.6249 15.9375C23.6249 17.8769 22.8545 19.7368 21.4831 21.1082C20.1118 22.4795 18.2518 23.25 16.3124 23.25V21C16.9772 21 17.6356 20.869 18.2498 20.6146C18.864 20.3602 19.4221 19.9873 19.8922 19.5172C20.3623 19.0471 20.7352 18.489 20.9896 17.8748C21.244 17.2606 21.3749 16.6023 21.3749 15.9375H23.6249ZM16.3124 8.62496C18.2518 8.62496 20.1118 9.39539 21.4831 10.7667C22.8545 12.1381 23.6249 13.9981 23.6249 15.9375H21.3749C21.3749 15.2726 21.244 14.6143 20.9896 14.0001C20.7352 13.3859 20.3623 12.8278 19.8922 12.3577C19.4221 11.8876 18.864 11.5147 18.2498 11.2603C17.6356 11.0059 16.9772 10.875 16.3124 10.875V8.62496Z" fill="white"/>
</svg>
