<svg width="23" height="19" viewBox="0 0 23 19" fill="none" xmlns="http://www.w3.org/2000/svg">
<path d="M2.49094 18.2465C1.8716 18.2465 1.34158 18.0313 0.900909 17.601C0.460233 17.1706 0.23952 16.6527 0.23877 16.0471V2.85076C0.23877 2.24592 0.459483 1.72833 0.900909 1.29799C1.34233 0.86764 1.87235 0.6521 2.49094 0.651367H20.5083C21.1277 0.651367 21.6581 0.866907 22.0995 1.29799C22.5409 1.72907 22.7613 2.24666 22.7605 2.85076V16.0471C22.7605 16.6519 22.5402 17.1699 22.0995 17.601C21.6588 18.032 21.1284 18.2472 20.5083 18.2465H2.49094ZM11.4996 10.3562C11.5935 10.3562 11.6922 10.3422 11.7958 10.3144C11.8994 10.2865 11.9977 10.2455 12.0908 10.1912L20.0579 5.32507C20.208 5.23343 20.3207 5.11906 20.3957 4.98196C20.4708 4.84487 20.5083 4.69348 20.5083 4.52779C20.5083 4.16122 20.3488 3.8863 20.0297 3.70302C19.7107 3.51974 19.3822 3.5289 19.0444 3.73051L11.4996 8.34923L3.95486 3.73051C3.61703 3.5289 3.28859 3.5245 2.96953 3.71731C2.65047 3.91013 2.49094 4.18029 2.49094 4.52779C2.49094 4.71107 2.52848 4.87163 2.60355 5.00946C2.67862 5.14728 2.79123 5.25249 2.94138 5.32507L10.9084 10.1912C11.0023 10.2462 11.101 10.2876 11.2046 10.3155C11.3082 10.3433 11.4065 10.3569 11.4996 10.3562Z" fill="white"/>
</svg>
