<svg width="83" height="85" viewBox="0 0 83 85" fill="none" xmlns="http://www.w3.org/2000/svg">
<path d="M41.5 2C19.7197 2 2 16.1766 2 33.6C2 45.0866 9.49315 55.3882 21.75 60.9893V81L42.843 65.1842C64.0032 64.6154 81 50.664 81 33.6C81 16.1766 63.2803 2 41.5 2ZM31.625 37.55C30.0536 37.55 28.5465 36.9258 27.4354 35.8146C26.3242 34.7035 25.7 33.1964 25.7 31.625C25.7 30.0536 26.3242 28.5465 27.4354 27.4354C28.5465 26.3242 30.0536 25.7 31.625 25.7C33.1964 25.7 34.7035 26.3242 35.8146 27.4354C36.9258 28.5465 37.55 30.0536 37.55 31.625C37.55 33.1964 36.9258 34.7035 35.8146 35.8146C34.7035 36.9258 33.1964 37.55 31.625 37.55ZM51.375 37.55C49.8036 37.55 48.2965 36.9258 47.1854 35.8146C46.0742 34.7035 45.45 33.1964 45.45 31.625C45.45 30.0536 46.0742 28.5465 47.1854 27.4354C48.2965 26.3242 49.8036 25.7 51.375 25.7C52.9464 25.7 54.4535 26.3242 55.5646 27.4354C56.6758 28.5465 57.3 30.0536 57.3 31.625C57.3 33.1964 56.6758 34.7035 55.5646 35.8146C54.4535 36.9258 52.9464 37.55 51.375 37.55Z" stroke="#201B20" stroke-width="4"/>
</svg>
