<svg width="50" height="50" viewBox="0 0 50 50" fill="none" xmlns="http://www.w3.org/2000/svg">
<path d="M49.78 24.76C38.62 23.73 33.45 22.8 30.32 19.68C27.2 16.56 26.26 11.39 25.24 0.22C25.23 0.1 25.12 0 25 0C24.88 0 24.77 0.1 24.76 0.22C23.73 11.38 22.8 16.55 19.68 19.68C16.56 22.8 11.39 23.74 0.22 24.76C0.1 24.77 0 24.88 0 25C0 25.12 0.1 25.23 0.22 25.24C11.38 26.27 16.55 27.2 19.68 30.32C22.8 33.44 23.74 38.61 24.76 49.78C24.77 49.9 24.88 50 25 50C25.12 50 25.23 49.9 25.24 49.78C26.27 38.62 27.2 33.45 30.32 30.32C33.44 27.2 38.61 26.26 49.78 25.24C49.9 25.23 50 25.12 50 25C50 24.88 49.9 24.77 49.78 24.76Z" fill="#FF4405"/>
</svg>
