<svg width="110" height="108" viewBox="0 0 110 108" fill="none" xmlns="http://www.w3.org/2000/svg">
<path d="M101.97 7.64253L100.72 6.39907C94.8235 0.533644 85.2475 0.533644 79.3274 6.39907L64.8926 20.7576C58.9961 26.623 49.4201 26.623 43.4999 20.7576L29.0652 6.39907C23.1686 0.533644 13.5926 0.533644 7.67248 6.39907L6.42241 7.64253C0.525862 13.508 0.525862 23.0334 6.42241 28.9223L20.8572 43.2809C26.7537 49.1463 26.7537 58.6717 20.8572 64.5606L6.446 78.8957C0.525861 84.7846 0.549448 94.3335 6.46959 100.199L7.71966 101.442C13.6398 107.308 23.2158 107.284 29.1124 101.395C31.3766 99.1431 33.8296 96.7031 36.259 94.2631C38.7827 91.7527 41.3064 89.2423 43.6179 86.9196C49.4201 81.148 58.7838 81.0307 64.7275 86.638C67.2277 88.9842 69.9637 91.5416 72.7704 94.0989C76.1904 97.1254 79.9406 100.058 83.3371 102.615C89.7525 107.402 98.8096 106.393 103.975 100.316C109.14 94.2396 108.669 85.2304 102.89 79.7169C100.296 77.2534 97.4652 74.5084 94.682 71.7633L87.4646 64.5841C81.5681 58.7186 81.5681 49.1932 87.4646 43.3043L101.899 28.9458C107.796 23.0803 107.796 13.5549 101.899 7.66598L101.97 7.64253Z" stroke="#201B20" stroke-width="4"/>
</svg>
