<svg width="65" height="65" viewBox="0 0 65 65" fill="none" xmlns="http://www.w3.org/2000/svg">
<path d="M57.7778 0H7.22222C3.25 0 0 3.25 0 7.22222V57.7778C0 61.75 3.25 65 7.22222 65H57.7778C61.75 65 65 61.75 65 57.7778V7.22222C65 3.25 61.75 0 57.7778 0ZM27.8417 47.9917C27.5076 48.3264 27.1108 48.592 26.6739 48.7732C26.2371 48.9544 25.7688 49.0477 25.2958 49.0477C24.8229 49.0477 24.3546 48.9544 23.9177 48.7732C23.4809 48.592 23.0841 48.3264 22.75 47.9917L9.78611 35.0278C9.45179 34.6935 9.18659 34.2966 9.00565 33.8597C8.82472 33.4229 8.73159 32.9548 8.73159 32.4819C8.73159 32.0091 8.82472 31.541 9.00565 31.1041C9.18659 30.6673 9.45179 30.2704 9.78611 29.9361C10.1204 29.6018 10.5173 29.3366 10.9542 29.1557C11.391 28.9747 11.8591 28.8816 12.3319 28.8816C12.8047 28.8816 13.2729 28.9747 13.7097 29.1557C14.1466 29.3366 14.5435 29.6018 14.8778 29.9361L25.2778 40.3361L50.1222 15.4917C50.7974 14.8165 51.7132 14.4371 52.6681 14.4371C53.6229 14.4371 54.5387 14.8165 55.2139 15.4917C55.8891 16.1669 56.2684 17.0826 56.2684 18.0375C56.2684 18.9924 55.8891 19.9081 55.2139 20.5833L27.8417 47.9917Z" fill="#FFC107"/>
</svg>
