<svg width="27" height="28" viewBox="0 0 27 28" fill="none" xmlns="http://www.w3.org/2000/svg">
<path d="M25.875 14.2502L23.175 11.1002L23.5125 6.93768L19.4625 6.03768L17.325 2.43768L13.5 4.12518L9.675 2.43768L7.5375 6.03768L3.4875 6.93768L3.825 11.1002L1.125 14.2502L3.825 17.4002L3.4875 21.5627L7.5375 22.4627L9.675 26.0627L13.5 24.3752L17.325 26.0627L19.4625 22.4627L23.5125 21.5627L23.175 17.4002L25.875 14.2502ZM21.0375 19.7627L18 20.4377L16.425 23.1377L13.5 21.9002L10.575 23.1377L9 20.4377L5.9625 19.7627L6.1875 16.6127L4.1625 14.2502L6.1875 11.8877L5.9625 8.73768L9 8.06268L10.575 5.36268L13.5 6.60018L16.425 5.36268L18 8.06268L21.0375 8.73768L20.8125 11.8877L22.8375 14.2502L20.8125 16.6127L21.0375 19.7627ZM18.675 9.30018L20.25 10.8752L11.25 19.8752L6.75 15.3752L8.325 13.8002L11.25 16.7252L18.675 9.30018Z" fill="white"/>
</svg>
