<svg width="27" height="28" viewBox="0 0 27 28" fill="none" xmlns="http://www.w3.org/2000/svg">
<path d="M13.5 5.25012C14.6935 5.25012 15.8381 5.72423 16.682 6.56814C17.5259 7.41206 18 8.55665 18 9.75012C18 10.9436 17.5259 12.0882 16.682 12.9321C15.8381 13.776 14.6935 14.2501 13.5 14.2501C12.3065 14.2501 11.1619 13.776 10.318 12.9321C9.47411 12.0882 9 10.9436 9 9.75012C9 8.55665 9.47411 7.41206 10.318 6.56814C11.1619 5.72423 12.3065 5.25012 13.5 5.25012ZM13.5 7.50012C12.9033 7.50012 12.331 7.73717 11.909 8.15913C11.4871 8.58109 11.25 9.15338 11.25 9.75012C11.25 10.3469 11.4871 10.9192 11.909 11.3411C12.331 11.7631 12.9033 12.0001 13.5 12.0001C14.0967 12.0001 14.669 11.7631 15.091 11.3411C15.5129 10.9192 15.75 10.3469 15.75 9.75012C15.75 9.15338 15.5129 8.58109 15.091 8.15913C14.669 7.73717 14.0967 7.50012 13.5 7.50012ZM13.5 15.3751C16.5037 15.3751 22.5 16.8714 22.5 19.8751V23.2501H4.5V19.8751C4.5 16.8714 10.4963 15.3751 13.5 15.3751ZM13.5 17.5126C10.1588 17.5126 6.6375 19.1551 6.6375 19.8751V21.1126H20.3625V19.8751C20.3625 19.1551 16.8413 17.5126 13.5 17.5126Z" fill="white"/>
</svg>
