<svg width="45" height="45" viewBox="0 0 45 45" fill="none" xmlns="http://www.w3.org/2000/svg">
<rect width="45" height="45" rx="22.5" fill="#201B20"/>
<path d="M30.7778 13C31.3671 13 31.9324 13.2341 32.3491 13.6509C32.7659 14.0676 33 14.6329 33 15.2222V30.7778C33 31.3671 32.7659 31.9324 32.3491 32.3491C31.9324 32.7659 31.3671 33 30.7778 33H15.2222C14.6329 33 14.0676 32.7659 13.6509 32.3491C13.2341 31.9324 13 31.3671 13 30.7778V15.2222C13 14.6329 13.2341 14.0676 13.6509 13.6509C14.0676 13.2341 14.6329 13 15.2222 13H30.7778ZM30.2222 30.2222V24.3333C30.2222 23.3727 29.8406 22.4513 29.1613 21.772C28.482 21.0927 27.5607 20.7111 26.6 20.7111C25.6556 20.7111 24.5556 21.2889 24.0222 22.1556V20.9222H20.9222V30.2222H24.0222V24.7444C24.0222 23.8889 24.7111 23.1889 25.5667 23.1889C25.9792 23.1889 26.3749 23.3528 26.6666 23.6445C26.9583 23.9362 27.1222 24.3319 27.1222 24.7444V30.2222H30.2222ZM17.3111 19.1778C17.8062 19.1778 18.281 18.9811 18.631 18.631C18.9811 18.281 19.1778 17.8062 19.1778 17.3111C19.1778 16.2778 18.3444 15.4333 17.3111 15.4333C16.8131 15.4333 16.3355 15.6312 15.9833 15.9833C15.6312 16.3355 15.4333 16.8131 15.4333 17.3111C15.4333 18.3444 16.2778 19.1778 17.3111 19.1778ZM18.8556 30.2222V20.9222H15.7778V30.2222H18.8556Z" fill="white"/>
</svg>
