<svg width="27" height="28" viewBox="0 0 27 28" fill="none" xmlns="http://www.w3.org/2000/svg">
<path d="M13.5 8.06268C14.2459 8.06268 14.9613 8.359 15.4887 8.88645C16.0162 9.41389 16.3125 10.1293 16.3125 10.8752C16.3125 11.2445 16.2398 11.6103 16.0984 11.9515C15.9571 12.2927 15.7499 12.6028 15.4887 12.8639C15.2276 13.1251 14.9175 13.3323 14.5763 13.4736C14.2351 13.6149 13.8693 13.6877 13.5 13.6877C12.7541 13.6877 12.0387 13.3914 11.5113 12.8639C10.9838 12.3365 10.6875 11.6211 10.6875 10.8752C10.6875 10.1293 10.9838 9.41389 11.5113 8.88645C12.0387 8.359 12.7541 8.06268 13.5 8.06268ZM13.5 3.00018C15.5886 3.00018 17.5916 3.82987 19.0685 5.30672C20.5453 6.78357 21.375 8.7866 21.375 10.8752C21.375 16.7814 13.5 25.5002 13.5 25.5002C13.5 25.5002 5.625 16.7814 5.625 10.8752C5.625 8.7866 6.45469 6.78357 7.93153 5.30672C9.40838 3.82987 11.4114 3.00018 13.5 3.00018ZM13.5 5.25018C12.0082 5.25018 10.5774 5.84282 9.52252 6.89771C8.46763 7.9526 7.875 9.38334 7.875 10.8752C7.875 12.0002 7.875 14.2502 13.5 21.7989C19.125 14.2502 19.125 12.0002 19.125 10.8752C19.125 9.38334 18.5324 7.9526 17.4775 6.89771C16.4226 5.84282 14.9918 5.25018 13.5 5.25018Z" fill="white"/>
</svg>
