<svg width="74" height="74" viewBox="0 0 74 74" fill="none" xmlns="http://www.w3.org/2000/svg">
<path d="M73.6744 36.6448C57.1576 35.1204 49.506 33.744 44.8736 29.1264C40.256 24.5088 38.8648 16.8572 37.3552 0.3256C37.3404 0.148 37.1776 0 37 0C36.8224 0 36.6596 0.148 36.6448 0.3256C35.1204 16.8424 33.744 24.494 29.1264 29.1264C24.5088 33.744 16.8572 35.1352 0.3256 36.6448C0.148 36.6596 0 36.8224 0 37C0 37.1776 0.148 37.3404 0.3256 37.3552C16.8424 38.8796 24.494 40.256 29.1264 44.8736C33.744 49.4912 35.1352 57.1428 36.6448 73.6744C36.6596 73.852 36.8224 74 37 74C37.1776 74 37.3404 73.852 37.3552 73.6744C38.8796 57.1576 40.256 49.506 44.8736 44.8736C49.4912 40.256 57.1428 38.8648 73.6744 37.3552C73.852 37.3404 74 37.1776 74 37C74 36.8224 73.852 36.6596 73.6744 36.6448Z" fill="#201B20"/>
</svg>
