<svg width="30" height="31" viewBox="0 0 30 31" fill="none" xmlns="http://www.w3.org/2000/svg">
<path d="M29.4149 4.66159C28.6797 2.91365 27.2018 1.58582 25.3863 1.04568C24.4261 0.76061 23.2408 0.663086 21.7629 0.663086H8.25206C6.77419 0.663086 5.5889 0.76061 4.62866 1.04568C2.8057 1.58582 1.32783 2.91365 0.592648 4.66159C0 6.15446 0 7.84988 0 8.91515V22.4185C0 23.4838 0 25.1792 0.592648 26.6721C1.32783 28.42 2.8057 29.7479 4.62866 30.288C5.5889 30.5731 6.77419 30.6706 8.25206 30.6706H21.7554C23.2333 30.6706 24.4186 30.5731 25.3788 30.288C27.1943 29.7479 28.6722 28.42 29.4074 26.6721C29.9925 25.1792 30 23.4838 30 22.4185V8.91515C30 7.84988 30 6.15446 29.4074 4.66159H29.4149ZM17.5319 21.0457C17.4569 21.9684 17.3068 23.1912 17.1118 24.444C16.9767 25.3368 16.8642 25.8169 16.7592 26.1545C16.5941 26.7096 15.9715 27.1972 15.0113 27.1972C14.051 27.1972 13.4284 26.7096 13.2633 26.1545C13.1583 25.8094 13.0458 25.3293 12.9107 24.444C12.7157 23.1987 12.5656 21.9684 12.4906 21.0457C12.4081 20.0779 12.3631 19.4778 12.4456 18.7726C12.4681 18.45 12.6107 18.1425 12.8432 17.9099C13.2933 17.4373 14.081 17.1297 15.0188 17.1297C15.9565 17.1297 16.7442 17.4373 17.1943 17.9099C17.4269 18.1425 17.5694 18.45 17.5919 18.7726C17.6669 19.4778 17.6219 20.0779 17.5469 21.0457H17.5319ZM11.0953 18.7126C11.1928 18.8026 11.2378 18.9302 11.2303 19.0577C11.2078 19.4628 11.2153 19.8604 11.2453 20.2655C11.2453 20.2955 11.2453 20.3255 11.2228 20.3555C11.1778 20.4155 11.0953 20.438 11.0278 20.393C9.06977 19.0577 7.90698 16.8296 7.93698 14.459C7.982 10.7156 10.9827 7.63233 14.7262 7.48979C14.8162 7.48979 14.9062 7.48979 14.9962 7.48979C18.9047 7.48979 22.0705 10.6481 22.078 14.5566C22.078 16.8971 20.9227 19.0802 18.9872 20.393C18.9647 20.408 18.9347 20.4155 18.9047 20.4155C18.8297 20.4155 18.7697 20.348 18.7772 20.2655C18.7997 19.8379 18.8072 19.4553 18.7922 19.0577C18.7922 18.9302 18.8372 18.8026 18.9272 18.7126C20.0825 17.6323 20.7352 16.1245 20.7352 14.5416C20.7352 14.474 20.7352 14.399 20.7352 14.3315C20.6152 11.1732 17.952 8.7126 14.7937 8.83263C11.7854 8.96016 9.39235 11.3833 9.30233 14.3915C9.25731 16.0269 9.90998 17.5948 11.1103 18.7126H11.0953ZM17.4644 13.6788C17.4644 15.0367 16.3616 16.132 15.0113 16.132C13.6609 16.132 12.5581 15.0292 12.5581 13.6788C12.5581 12.3285 13.6609 11.2257 15.0113 11.2257C16.3616 11.2257 17.4644 12.3285 17.4644 13.6788ZM18.4996 24.4965C18.4996 24.4965 18.4546 24.504 18.4321 24.4965C18.3571 24.4815 18.3046 24.414 18.3121 24.339C18.3646 23.9789 18.4171 23.6188 18.4621 23.2587C18.4771 23.1312 18.5596 23.0262 18.6722 22.9737C22.0255 21.5108 24.201 18.195 24.201 14.5341C24.201 9.43278 20.03 5.29174 14.9212 5.32925C9.92498 5.36676 5.84396 9.44028 5.79895 14.4365C5.76894 18.1275 7.94449 21.4883 11.3278 22.9662C11.4404 23.0187 11.5229 23.1237 11.5379 23.2512C11.5829 23.6113 11.6354 23.9714 11.6879 24.3315C11.6879 24.354 11.6879 24.3765 11.6879 24.399C11.6654 24.474 11.5829 24.5115 11.5079 24.489C7.35934 23.0337 4.3886 19.0502 4.44861 14.399C4.51613 8.65258 9.22731 3.99392 14.9662 3.97891C20.8027 3.96391 25.5514 8.7051 25.5514 14.5341C25.5514 19.1327 22.5956 23.0487 18.4921 24.489L18.4996 24.4965Z" fill="#FF4405"/>
</svg>
