<svg width="29" height="29" viewBox="0 0 29 29" fill="none" xmlns="http://www.w3.org/2000/svg">
<path d="M20.3272 10.0734V6.5771C20.3272 6.26801 20.2044 5.97158 19.9859 5.75303C19.7673 5.53447 19.4709 5.41168 19.1618 5.41168H7.5076C6.88942 5.41168 6.29656 5.65725 5.85944 6.09437C5.42233 6.53149 5.17676 7.12434 5.17676 7.74252M5.17676 7.74252C5.17676 8.3607 5.42233 8.95356 5.85944 9.39067C6.29656 9.82779 6.88942 10.0734 7.5076 10.0734H21.4926C21.8017 10.0734 22.0981 10.1961 22.3167 10.4147C22.5353 10.6333 22.658 10.9297 22.658 11.2388V14.735M5.17676 7.74252V21.7276C5.17676 22.3457 5.42233 22.9386 5.85944 23.3757C6.29656 23.8128 6.88942 24.0584 7.5076 24.0584H21.4926C21.8017 24.0584 22.0981 23.9356 22.3167 23.717C22.5353 23.4985 22.658 23.2021 22.658 22.893V19.3967" stroke="white" stroke-width="2.25" stroke-linecap="round" stroke-linejoin="round"/>
<path d="M23.8236 14.735V19.3967H19.1619C18.5437 19.3967 17.9509 19.1512 17.5137 18.714C17.0766 18.2769 16.8311 17.6841 16.8311 17.0659C16.8311 16.4477 17.0766 15.8549 17.5137 15.4177C17.9509 14.9806 18.5437 14.735 19.1619 14.735H23.8236Z" stroke="white" stroke-width="2.25" stroke-linecap="round" stroke-linejoin="round"/>
</svg>
