<svg width="174" height="174" viewBox="0 0 174 174" fill="none" xmlns="http://www.w3.org/2000/svg">
<path d="M81.5505 174L85.7638 104.497H88.8281L93.0414 174H81.5505Z" fill="#FF4405"/>
<path d="M48.6796 165.295L79.1479 102.687L82.0032 103.836L59.3 169.682L48.6796 165.295Z" fill="#FF4405"/>
<path d="M21.6238 144.646L73.7506 98.4735L75.9444 100.667L29.737 152.794L21.6238 144.646Z" fill="#FF4405"/>
<path d="M4.52672 115.257L70.373 92.5539L71.5569 95.3744L8.94897 125.878L4.52672 115.257Z" fill="#FF4405"/>
<path d="M0 81.5505L69.5025 85.7638V88.8281L0 93.0414V81.5505Z" fill="#FF4405"/>
<path d="M8.70522 48.6796L71.3132 79.1479L70.1293 82.0032L4.31779 59.3L8.70522 48.6796Z" fill="#FF4405"/>
<path d="M29.3192 21.6238L75.5265 73.7506L73.3328 75.9444L21.2059 29.737L29.3192 21.6238Z" fill="#FF4405"/>
<path d="M58.7428 4.52672L81.4461 70.373L78.6256 71.5569L48.1225 8.94897L58.7428 4.52672Z" fill="#FF4405"/>
<path d="M92.4495 0L88.2361 69.5025H85.1719L80.9586 0H92.4495Z" fill="#FF4405"/>
<path d="M125.32 8.70522L94.8521 71.3132L91.9968 70.1293L114.7 4.31779L125.32 8.70522Z" fill="#FF4405"/>
<path d="M152.376 29.3192L100.249 75.5265L98.0556 73.3328L144.228 21.2059L152.376 29.3192Z" fill="#FF4405"/>
<path d="M169.473 58.7428L103.627 81.4461L102.443 78.6256L165.051 48.1225L169.473 58.7428Z" fill="#FF4405"/>
<path d="M174 92.4495L104.497 88.2361V85.1719L174 80.9586V92.4495Z" fill="#FF4405"/>
<path d="M165.295 125.32L102.687 94.8521L103.836 91.9968L169.682 114.7L165.295 125.32Z" fill="#FF4405"/>
<path d="M144.646 152.376L98.4735 100.249L100.667 98.0556L152.794 144.228L144.646 152.376Z" fill="#FF4405"/>
<path d="M115.257 169.473L92.5539 103.627L95.3744 102.443L125.878 165.051L115.257 169.473Z" fill="#FF4405"/>
</svg>
