<svg width="35" height="35" viewBox="0 0 35 35" fill="none" xmlns="http://www.w3.org/2000/svg">
<path d="M31.1111 0H3.88889C1.75 0 0 1.75 0 3.88889V31.1111C0 33.25 1.75 35 3.88889 35H31.1111C33.25 35 35 33.25 35 31.1111V3.88889C35 1.75 33.25 0 31.1111 0ZM14.9917 25.8417C14.8118 26.0219 14.5981 26.1649 14.3629 26.2625C14.1277 26.3601 13.8755 26.4103 13.6208 26.4103C13.3662 26.4103 13.114 26.3601 12.8788 26.2625C12.6436 26.1649 12.4299 26.0219 12.25 25.8417L5.26944 18.8611C5.08942 18.6811 4.94662 18.4674 4.8492 18.2322C4.75177 17.997 4.70163 17.7449 4.70163 17.4903C4.70163 17.2357 4.75177 16.9836 4.8492 16.7484C4.94662 16.5132 5.08942 16.2995 5.26944 16.1194C5.44947 15.9394 5.66318 15.7966 5.89839 15.6992C6.1336 15.6018 6.38569 15.5516 6.64028 15.5516C6.89487 15.5516 7.14696 15.6018 7.38217 15.6992C7.61738 15.7966 7.83109 15.9394 8.01111 16.1194L13.6111 21.7194L26.9889 8.34167C27.3525 7.9781 27.8456 7.77385 28.3597 7.77385C28.8739 7.77385 29.367 7.9781 29.7306 8.34167C30.0941 8.70523 30.2984 9.19834 30.2984 9.7125C30.2984 10.2267 30.0941 10.7198 29.7306 11.0833L14.9917 25.8417Z" fill="#FF4405"/>
</svg>
