<svg width="38" height="38" viewBox="0 0 38 38" fill="none" xmlns="http://www.w3.org/2000/svg">
<circle cx="19" cy="19" r="19" fill="#FF4405"/>
<path d="M9.74761 27.9828C9.11153 27.9828 8.56719 27.7618 8.11461 27.3198C7.66202 26.8778 7.43534 26.3459 7.43457 25.7239V12.1709C7.43457 11.5498 7.66125 11.0182 8.11461 10.5762C8.56796 10.1342 9.1123 9.91286 9.74761 9.91211H28.252C28.888 9.91211 29.4328 10.1335 29.8861 10.5762C30.3395 11.0189 30.5658 11.5505 30.565 12.1709V25.7239C30.565 26.3451 30.3387 26.8771 29.8861 27.3198C29.4335 27.7625 28.8888 27.9835 28.252 27.9828H9.74761ZM18.9998 19.8792C19.0962 19.8792 19.1976 19.8649 19.304 19.8363C19.4104 19.8077 19.5114 19.7655 19.607 19.7098L27.7894 14.7121C27.9436 14.618 28.0592 14.5005 28.1363 14.3597C28.2134 14.2189 28.252 14.0635 28.252 13.8933C28.252 13.5168 28.0881 13.2345 27.7604 13.0462C27.4328 12.858 27.0954 12.8674 26.7485 13.0745L18.9998 17.818L11.2511 13.0745C10.9041 12.8674 10.5668 12.8629 10.2391 13.0609C9.91145 13.2589 9.74761 13.5364 9.74761 13.8933C9.74761 14.0815 9.78616 14.2464 9.86327 14.388C9.94037 14.5295 10.056 14.6376 10.2102 14.7121L18.3926 19.7098C18.489 19.7663 18.5904 19.8088 18.6968 19.8374C18.8032 19.866 18.9042 19.88 18.9998 19.8792Z" fill="white"/>
</svg>
