<svg width="152" height="303" viewBox="0 0 152 303" fill="none" xmlns="http://www.w3.org/2000/svg">
<path d="M142.01 303L149.347 181.97H154.683L162.02 303H142.01Z" fill="#201B20"/>
<path d="M84.7697 287.841L137.826 178.817L142.799 180.818L103.264 295.481L84.7697 287.841Z" fill="#201B20"/>
<path d="M37.6552 251.884L128.428 171.48L132.248 175.3L51.7835 266.072L37.6552 251.884Z" fill="#201B20"/>
<path d="M7.88273 200.706L122.546 161.171L124.608 166.083L15.5835 219.201L7.88273 200.706Z" fill="#201B20"/>
<path d="M0 142.01L121.03 149.347V154.683L0 162.02V142.01Z" fill="#201B20"/>
<path d="M15.1591 84.7697L124.183 137.826L122.122 142.799L7.51891 103.264L15.1591 84.7697Z" fill="#201B20"/>
<path d="M51.0558 37.6552L131.52 128.428L127.7 132.248L36.9276 51.7835L51.0558 37.6552Z" fill="#201B20"/>
<path d="M102.294 7.88273L141.828 122.546L136.917 124.608L83.7995 15.5835L102.294 7.88273Z" fill="#201B20"/>
<path d="M160.99 0L153.653 121.03H148.317L140.98 0H160.99Z" fill="#201B20"/>
<path d="M218.23 15.1591L165.174 124.183L160.201 122.122L199.736 7.51891L218.23 15.1591Z" fill="#201B20"/>
<path d="M265.345 51.0558L174.572 131.52L170.752 127.7L251.156 36.9276L265.345 51.0558Z" fill="#201B20"/>
<path d="M295.117 102.294L180.454 141.828L178.392 136.917L287.416 83.7995L295.117 102.294Z" fill="#201B20"/>
<path d="M303 160.99L181.97 153.653V148.317L303 140.98V160.99Z" fill="#201B20"/>
<path d="M287.841 218.23L178.817 165.174L180.818 160.201L295.481 199.736L287.841 218.23Z" fill="#201B20"/>
<path d="M251.884 265.345L171.48 174.572L175.3 170.752L266.072 251.156L251.884 265.345Z" fill="#201B20"/>
<path d="M200.706 295.117L161.171 180.454L166.083 178.392L219.201 287.416L200.706 295.117Z" fill="#201B20"/>
</svg>
