<svg width="50" height="50" viewBox="0 0 50 50" fill="none" xmlns="http://www.w3.org/2000/svg">
<path fill-rule="evenodd" clip-rule="evenodd" d="M10.417 2.08325C8.20686 2.08325 6.08725 2.96122 4.52444 4.52403C2.96164 6.08683 2.08366 8.20645 2.08366 10.4166L2.08366 39.5833C2.08366 41.7934 2.96164 43.913 4.52444 45.4758C6.08724 47.0386 8.20686 47.9166 10.417 47.9166L39.5837 47.9166C41.7938 47.9166 43.9134 47.0386 45.4762 45.4758C47.039 43.913 47.917 41.7934 47.917 39.5833L47.917 10.4166C47.917 8.20645 47.039 6.08683 45.4762 4.52403C43.9134 2.96123 41.7938 2.08325 39.5837 2.08325L10.417 2.08325ZM6.25033 10.4166L6.25033 39.5833C6.25033 40.6883 6.68932 41.7481 7.47072 42.5295C8.25212 43.3109 9.31193 43.7499 10.417 43.7499L39.5837 43.7499C40.6887 43.7499 41.7485 43.3109 42.5299 42.5295C43.3113 41.7481 43.7503 40.6883 43.7503 39.5833L43.7503 10.4166C43.7503 9.31152 43.3113 8.25171 42.5299 7.47031C41.7485 6.68891 40.6887 6.24992 39.5837 6.24992L10.417 6.24992C9.31193 6.24992 8.25212 6.6889 7.47072 7.47031C6.68932 8.25171 6.25033 9.31152 6.25033 10.4166Z" fill="#FF4405"/>
<path d="M23.5523 14.4834L33.7551 24.6863L13.3485 24.6871L13.3485 26.4252L33.7551 26.4261L23.5523 36.6289L24.7871 37.8638L35.8599 26.791L37.0947 25.5562L35.8599 24.3213L24.7871 13.2485L23.5523 14.4834Z" fill="#FF4405" stroke="#FF4405" stroke-width="3"/>
</svg>
