<svg width="22" height="22" viewBox="0 0 22 22" fill="none" xmlns="http://www.w3.org/2000/svg">
<path d="M15.6268 13.7518H14.6393L14.2893 13.4143C15.0705 12.5068 15.6414 11.4378 15.9612 10.2838C16.2811 9.12987 16.3419 7.91949 16.1393 6.7393C15.5518 3.2643 12.6518 0.4893 9.1518 0.0642996C7.92132 -0.0913682 6.67153 0.0365141 5.49808 0.438161C4.32463 0.839807 3.2586 1.50457 2.38159 2.38159C1.50457 3.2586 0.839807 4.32463 0.438161 5.49808C0.0365141 6.67153 -0.0913682 7.92132 0.0642996 9.1518C0.4893 12.6518 3.2643 15.5518 6.7393 16.1393C7.91949 16.3419 9.12987 16.2811 10.2838 15.9612C11.4378 15.6414 12.5068 15.0705 13.4143 14.2893L13.7518 14.6393V15.6268L19.0643 20.9393C19.5768 21.4518 20.4143 21.4518 20.9268 20.9393C21.4393 20.4268 21.4393 19.5893 20.9268 19.0768L15.6268 13.7518ZM8.1268 13.7518C5.0143 13.7518 2.5018 11.2393 2.5018 8.1268C2.5018 5.0143 5.0143 2.5018 8.1268 2.5018C11.2393 2.5018 13.7518 5.0143 13.7518 8.1268C13.7518 11.2393 11.2393 13.7518 8.1268 13.7518Z" fill="white"/>
</svg>
