<svg width="30" height="31" viewBox="0 0 30 31" fill="none" xmlns="http://www.w3.org/2000/svg">
<path d="M14.9999 0.00878906C6.71592 0.00878906 0 6.87125 0 15.3362C0 23.8016 6.71592 30.6635 14.9999 30.6635C23.2848 30.6635 30 23.8016 30 15.3362C30 6.87183 23.2848 0.00955876 14.9997 0.00955876L14.9999 0.00878906ZM21.8789 22.1154C21.8149 22.2226 21.7308 22.3158 21.6315 22.3897C21.5322 22.4637 21.4196 22.5169 21.3001 22.5463C21.1806 22.5757 21.0567 22.5808 20.9353 22.5612C20.8139 22.5416 20.6975 22.4977 20.5927 22.4321C17.0709 20.2338 12.6374 19.736 7.41606 20.955C7.17429 21.0112 6.92059 20.967 6.7107 20.8322C6.50081 20.6973 6.35191 20.4828 6.29674 20.2358C6.26929 20.1135 6.26572 19.9868 6.28621 19.8631C6.30671 19.7394 6.35087 19.621 6.41618 19.5148C6.48149 19.4085 6.56666 19.3165 6.66682 19.2439C6.76698 19.1713 6.88016 19.1196 6.99989 19.0918C12.7138 17.7577 17.615 18.3321 21.5689 20.8013C21.6738 20.8668 21.765 20.9527 21.8373 21.0542C21.9096 21.1557 21.9616 21.2708 21.9904 21.3928C22.0192 21.5149 22.0241 21.6415 22.0049 21.7656C21.9858 21.8896 21.9431 22.0083 21.8789 22.1154ZM23.7147 17.9421C23.376 18.5043 22.6561 18.6819 22.106 18.3359C18.0743 15.8036 11.928 15.0701 7.15902 16.5495C6.86215 16.6412 6.5418 16.6089 6.26821 16.4597C5.99462 16.3104 5.79014 16.0563 5.69961 15.7532C5.61012 15.4499 5.64195 15.1227 5.78812 14.8434C5.93429 14.564 6.18287 14.3553 6.4794 14.2629C11.927 12.5738 18.6993 13.392 23.3295 16.2993C23.8793 16.6453 24.0533 17.3809 23.7147 17.9421ZM23.872 13.5963C19.0382 10.6618 11.0618 10.3921 6.44607 11.8237C5.70488 12.0535 4.92113 11.6259 4.69666 10.8685C4.58867 10.5047 4.6265 10.1119 4.80182 9.77652C4.97715 9.44115 5.27562 9.19066 5.63163 9.0801C10.9301 7.4364 19.7384 7.75391 25.3043 11.1304C25.4629 11.2263 25.6015 11.3532 25.7121 11.5039C25.8226 11.6546 25.903 11.8261 25.9486 12.0086C25.9942 12.1911 26.0041 12.3809 25.9777 12.5674C25.9514 12.7538 25.8893 12.933 25.795 13.0949C25.4011 13.776 24.5377 14.0006 23.8731 13.5961L23.872 13.5963Z" fill="#FF4405"/>
</svg>
