<svg width="145" height="20" viewBox="0 0 145 20" fill="none" xmlns="http://www.w3.org/2000/svg">
<path d="M10.6178 16.755L5.54241 19.8125C5.3182 19.9551 5.08379 20.0163 4.83919 19.9959C4.59459 19.9755 4.38057 19.894 4.19712 19.7513C4.01367 19.6086 3.87099 19.4305 3.76907 19.2169C3.66716 19.0032 3.64678 18.7635 3.70792 18.4977L5.05322 12.7191L0.558722 8.83611C0.354891 8.65266 0.227699 8.44353 0.177149 8.20872C0.126599 7.9739 0.141682 7.7448 0.2224 7.5214C0.303117 7.298 0.425416 7.11455 0.589297 6.97105C0.753178 6.82755 0.977393 6.73583 1.26194 6.69588L7.19345 6.17611L9.48656 0.733795C9.58847 0.489197 9.74665 0.305748 9.96108 0.183449C10.1755 0.0611494 10.3944 0 10.6178 0C10.8412 0 11.0601 0.0611494 11.2746 0.183449C11.489 0.305748 11.6472 0.489197 11.7491 0.733795L14.0422 6.17611L19.9737 6.69588C20.2591 6.73664 20.4833 6.82837 20.6464 6.97105C20.8094 7.11373 20.9317 7.29718 21.0133 7.5214C21.0948 7.74561 21.1103 7.97513 21.0597 8.20994C21.0092 8.44476 20.8816 8.65348 20.6769 8.83611L16.1824 12.7191L17.5277 18.4977C17.5889 18.7627 17.5685 19.0024 17.4666 19.2169C17.3647 19.4313 17.222 19.6094 17.0385 19.7513C16.8551 19.8932 16.6411 19.9747 16.3965 19.9959C16.1519 20.0171 15.9175 19.956 15.6932 19.8125L10.6178 16.755Z" fill="#FFC107"/>
<path d="M41.5587 16.755L36.4833 19.8125C36.2591 19.9551 36.0247 20.0163 35.7801 19.9959C35.5355 19.9755 35.3215 19.894 35.138 19.7513C34.9546 19.6086 34.8119 19.4305 34.71 19.2169C34.6081 19.0032 34.5877 18.7635 34.6488 18.4977L35.9941 12.7191L31.4996 8.83611C31.2958 8.65266 31.1686 8.44353 31.1181 8.20872C31.0675 7.9739 31.0826 7.7448 31.1633 7.5214C31.244 7.298 31.3663 7.11455 31.5302 6.97105C31.6941 6.82755 31.9183 6.73583 32.2029 6.69588L38.1344 6.17611L40.4275 0.733795C40.5294 0.489197 40.6876 0.305748 40.902 0.183449C41.1164 0.0611494 41.3353 0 41.5587 0C41.7821 0 42.0011 0.0611494 42.2155 0.183449C42.4299 0.305748 42.5881 0.489197 42.69 0.733795L44.9831 6.17611L50.9146 6.69588C51.2 6.73664 51.4242 6.82837 51.5873 6.97105C51.7503 7.11373 51.8726 7.29718 51.9542 7.5214C52.0357 7.74561 52.0512 7.97513 52.0006 8.20994C51.9501 8.44476 51.8225 8.65348 51.6178 8.83611L47.1234 12.7191L48.4686 18.4977C48.5298 18.7627 48.5094 19.0024 48.4075 19.2169C48.3056 19.4313 48.1629 19.6094 47.9794 19.7513C47.796 19.8932 47.582 19.9747 47.3374 19.9959C47.0928 20.0171 46.8584 19.956 46.6342 19.8125L41.5587 16.755Z" fill="#FFC107"/>
<path d="M72.4992 16.755L67.4238 19.8125C67.1995 19.9551 66.9651 20.0163 66.7205 19.9959C66.4759 19.9755 66.2619 19.894 66.0785 19.7513C65.895 19.6086 65.7523 19.4305 65.6504 19.2169C65.5485 19.0032 65.5281 18.7635 65.5893 18.4977L66.9346 12.7191L62.4401 8.83611C62.2362 8.65266 62.109 8.44353 62.0585 8.20872C62.0079 7.9739 62.023 7.7448 62.1037 7.5214C62.1845 7.298 62.3068 7.11455 62.4706 6.97105C62.6345 6.82755 62.8587 6.73583 63.1433 6.69588L69.0748 6.17611L71.3679 0.733795C71.4698 0.489197 71.628 0.305748 71.8424 0.183449C72.0569 0.0611494 72.2758 0 72.4992 0C72.7226 0 72.9415 0.0611494 73.1559 0.183449C73.3703 0.305748 73.5285 0.489197 73.6304 0.733795L75.9235 6.17611L81.8551 6.69588C82.1404 6.73664 82.3646 6.82837 82.5277 6.97105C82.6908 7.11373 82.8131 7.29718 82.8946 7.5214C82.9761 7.74561 82.9916 7.97513 82.9411 8.20994C82.8905 8.44476 82.7629 8.65348 82.5583 8.83611L78.0638 12.7191L79.4091 18.4977C79.4702 18.7627 79.4498 19.0024 79.3479 19.2169C79.246 19.4313 79.1033 19.6094 78.9199 19.7513C78.7364 19.8932 78.5224 19.9747 78.2778 19.9959C78.0332 20.0171 77.7988 19.956 77.5746 19.8125L72.4992 16.755Z" fill="#FFC107"/>
<path d="M103.44 16.755L98.3647 19.8125C98.1405 19.9551 97.9061 20.0163 97.6615 19.9959C97.4169 19.9755 97.2028 19.894 97.0194 19.7513C96.8359 19.6086 96.6933 19.4305 96.5913 19.2169C96.4894 19.0032 96.469 18.7635 96.5302 18.4977L97.8755 12.7191L93.381 8.83611C93.1772 8.65266 93.05 8.44353 92.9994 8.20872C92.9489 7.9739 92.9639 7.7448 93.0447 7.5214C93.1254 7.298 93.2477 7.11455 93.4116 6.97105C93.5754 6.82755 93.7997 6.73583 94.0842 6.69588L100.016 6.17611L102.309 0.733795C102.411 0.489197 102.569 0.305748 102.783 0.183449C102.998 0.0611494 103.217 0 103.44 0C103.663 0 103.882 0.0611494 104.097 0.183449C104.311 0.305748 104.469 0.489197 104.571 0.733795L106.864 6.17611L112.796 6.69588C113.081 6.73664 113.306 6.82837 113.469 6.97105C113.632 7.11373 113.754 7.29718 113.836 7.5214C113.917 7.74561 113.933 7.97513 113.882 8.20994C113.831 8.44476 113.704 8.65348 113.499 8.83611L109.005 12.7191L110.35 18.4977C110.411 18.7627 110.391 19.0024 110.289 19.2169C110.187 19.4313 110.044 19.6094 109.861 19.7513C109.677 19.8932 109.463 19.9747 109.219 19.9959C108.974 20.0171 108.74 19.956 108.516 19.8125L103.44 16.755Z" fill="#FFC107"/>
<path d="M134.381 16.755L129.306 19.8125C129.081 19.9551 128.847 20.0163 128.602 19.9959C128.358 19.9755 128.144 19.894 127.96 19.7513C127.777 19.6086 127.634 19.4305 127.532 19.2169C127.43 19.0032 127.41 18.7635 127.471 18.4977L128.816 12.7191L124.322 8.83611C124.118 8.65266 123.991 8.44353 123.94 8.20872C123.89 7.9739 123.905 7.7448 123.986 7.5214C124.066 7.298 124.189 7.11455 124.352 6.97105C124.516 6.82755 124.741 6.73583 125.025 6.69588L130.957 6.17611L133.25 0.733795C133.352 0.489197 133.51 0.305748 133.724 0.183449C133.939 0.0611494 134.158 0 134.381 0C134.604 0 134.823 0.0611494 135.038 0.183449C135.252 0.305748 135.41 0.489197 135.512 0.733795L137.805 6.17611L143.737 6.69588C144.022 6.73664 144.246 6.82837 144.41 6.97105C144.573 7.11373 144.695 7.29718 144.776 7.5214C144.858 7.74561 144.873 7.97513 144.823 8.20994C144.772 8.44476 144.645 8.65348 144.44 8.83611L139.946 12.7191L141.291 18.4977C141.352 18.7627 141.332 19.0024 141.23 19.2169C141.128 19.4313 140.985 19.6094 140.802 19.7513C140.618 19.8932 140.404 19.9747 140.16 19.9959C139.915 20.0171 139.681 19.956 139.456 19.8125L134.381 16.755Z" fill="#FFC107"/>
</svg>
