<svg width="30" height="21" viewBox="0 0 30 21" fill="none" xmlns="http://www.w3.org/2000/svg">
<path d="M29.3345 3.28856C29.1643 2.65001 28.829 2.06998 28.3607 1.60703C27.8925 1.13876 27.3124 0.803516 26.6792 0.633234C24.3485 0 14.983 0 14.983 0C14.983 0 5.61219 0.0212852 3.28679 0.654519C2.64823 0.824801 2.07353 1.16004 1.60526 1.62832C1.13698 2.09659 0.801743 2.67129 0.631461 3.30985C-0.07095 7.44449 -0.347657 13.7502 0.652746 17.7199C0.823028 18.3585 1.15827 18.9332 1.62654 19.4014C2.09482 19.8697 2.66952 20.205 3.30807 20.3752C5.6388 21.0085 15.0043 21.0085 15.0043 21.0085C15.0043 21.0085 24.3751 21.0085 26.7005 20.3752C27.339 20.205 27.9137 19.8697 28.382 19.4014C28.8503 18.9332 29.1855 18.3531 29.3558 17.7199C30.1008 13.5799 30.3296 7.27953 29.3345 3.28856ZM12.0031 15.0061V6.00242L19.7775 10.5042L12.0031 15.0061Z" fill="#FF4405"/>
</svg>
