<svg enable-background="new 0 0 149.1049 26.7547" height="26.7547" viewBox="0 0 149.1049 26.7547" width="149.1049" xmlns="http://www.w3.org/2000/svg" xmlns:xlink="http://www.w3.org/1999/xlink"><linearGradient id="a" gradientUnits="userSpaceOnUse" x1="12.5815" x2="12.5815" y1=".000001" y2="25.163"><stop offset="0" stop-color="#f452ff"/><stop offset="1" stop-color="#832bc1"/></linearGradient><path d="m38.1928 20.4031h-4.7334l-1.1367 3.3564h-2.0049l4.4834-12.418h2.083l4.4834 12.418h-2.0391zm-4.2432-1.5488h3.752l-1.8496-5.4473h-.0518z"/><path d="m51.0502 19.2332c0 2.8135-1.5059 4.6211-3.7783 4.6211-1.29 0-2.3145-.5771-2.8486-1.584h-.043v4.4844h-1.8584v-12.0489h1.7988v1.5059h.0342c.5166-.9717 1.6182-1.6006 2.8828-1.6006 2.2979 0 3.8125 1.8164 3.8125 4.6221zm-1.9101 0c0-1.833-.9473-3.0381-2.3926-3.0381-1.4199 0-2.375 1.2305-2.375 3.0381 0 1.8242.9551 3.0459 2.375 3.0459 1.4453 0 2.3926-1.1963 2.3926-3.0459z"/><path d="m61.0151 19.2332c0 2.8135-1.5059 4.6211-3.7783 4.6211-1.29 0-2.3145-.5771-2.8486-1.584h-.043v4.4844h-1.8584v-12.0489h1.7988v1.5059h.0342c.5166-.9717 1.6182-1.6006 2.8828-1.6006 2.2978 0 3.8125 1.8164 3.8125 4.6221zm-1.9102 0c0-1.833-.9473-3.0381-2.3926-3.0381-1.4199 0-2.375 1.2305-2.375 3.0381 0 1.8242.9551 3.0459 2.375 3.0459 1.4453 0 2.3926-1.1963 2.3926-3.0459z"/><path d="m62.5199 11.3416h1.8594v12.418h-1.8594z"/><path d="m74.0551 21.1004c-.25 1.6436-1.8506 2.7715-3.8984 2.7715-2.6338 0-4.2686-1.7646-4.2686-4.5957 0-2.8398 1.6436-4.6816 4.1904-4.6816 2.5049 0 4.0801 1.7207 4.0801 4.4658v.6367h-6.3945v.1123c0 1.5488.9727 2.5645 2.4355 2.5645 1.0322 0 1.8418-.4902 2.0908-1.2734h1.7647zm-6.2822-2.7022h4.5264c-.043-1.3857-.9297-2.2979-2.2207-2.2979-1.2823.0001-2.211.9298-2.3057 2.2979z"/><path d="m84.0571 11.3416c2.4092 0 4.0879 1.6611 4.0879 4.0791 0 2.4268-1.7129 4.0957-4.1484 4.0957h-2.668v4.2432h-1.9277v-12.418zm-2.7286 6.5576h2.2119c1.6777 0 2.6328-.9043 2.6328-2.4697 0-1.5664-.9551-2.4619-2.624-2.4619h-2.2207z"/><path d="m88.8237 19.2332c0-2.8486 1.6777-4.6387 4.2939-4.6387 2.625 0 4.2949 1.79 4.2949 4.6387 0 2.8564-1.6611 4.6387-4.2949 4.6387-2.6328-.0001-4.2939-1.7823-4.2939-4.6387zm6.6953 0c0-1.9541-.8955-3.1074-2.4014-3.1074s-2.4014 1.1621-2.4014 3.1074c0 1.9619.8955 3.1064 2.4014 3.1064s2.4014-1.1445 2.4014-3.1064z"/><path d="m98.7172 19.2332c0-2.7969 1.54-4.6221 3.7861-4.6221 1.2998 0 2.3242.6025 2.8398 1.6006h.0352v-4.8701h1.8672v12.418h-1.8076v-1.54h-.0342c-.5332 1.0322-1.5664 1.6348-2.8828 1.6348-2.2637-.0001-3.8037-1.8243-3.8037-4.6212zm1.9014 0c0 1.8584.9473 3.0459 2.3926 3.0459 1.4287 0 2.3838-1.2051 2.3838-3.0459 0-1.8252-.9551-3.0381-2.3838-3.0381-1.4454 0-2.3926 1.1963-2.3926 3.0381z"/><path d="m115.1537 17.8211c-.1631-.9551-.9121-1.6689-2.1338-1.6689-1.4287 0-2.376 1.1963-2.376 3.0811 0 1.9277.9561 3.0889 2.3926 3.0889 1.1533 0 1.9111-.5762 2.1172-1.626h1.79c-.2061 1.9014-1.7295 3.1758-3.9238 3.1758-2.582 0-4.2686-1.7646-4.2686-4.6387 0-2.8145 1.6865-4.6387 4.251-4.6387 2.3232 0 3.7695 1.4629 3.9248 3.2266h-1.7734z"/><path d="m118.0824 21.1863c0-1.583 1.2129-2.5391 3.3643-2.668l2.4785-.1377v-.6885c0-1.0068-.6621-1.5752-1.7891-1.5752-1.0332 0-1.7559.4912-1.9023 1.2744h-1.7383c.0518-1.6357 1.5742-2.7969 3.6914-2.7969 2.1602 0 3.5889 1.1787 3.5889 2.96v6.2051h-1.7812v-1.4893h-.043c-.5254 1.0068-1.6699 1.6445-2.8574 1.6445-1.7725.0001-3.0118-1.1014-3.0118-2.7284zm5.8428-.8174v-.6973l-2.2285.1377c-1.1104.0693-1.7383.5508-1.7383 1.3252 0 .792.6543 1.3086 1.6523 1.3086 1.2999 0 2.3145-.8955 2.3145-2.0742z"/><path d="m130.9633 14.6033c2.0059 0 3.4424 1.1094 3.4854 2.71h-1.7471c-.0771-.7998-.7568-1.29-1.79-1.29-1.0068 0-1.6777.4639-1.6777 1.1699 0 .542.4473.9033 1.3857 1.1357l1.5234.3535c1.8242.4385 2.5127 1.1094 2.5127 2.4355 0 1.6348-1.5488 2.7539-3.7607 2.7539-2.1348 0-3.5713-1.0938-3.709-2.7461h1.8408c.1299.8691.8262 1.334 1.9541 1.334 1.1104 0 1.8076-.4561 1.8076-1.1787 0-.5596-.3447-.8604-1.291-1.1016l-1.6182-.3955c-1.6357-.3965-2.4619-1.2314-2.4619-2.4873 0-1.6005 1.4375-2.6933 3.5459-2.6933z"/><path d="m138.6938 12.5633v2.1426h1.7217v1.4717h-1.7217v4.9912c0 .7754.3447 1.1367 1.1016 1.1367.1895 0 .4912-.0264.6113-.043v1.4629c-.2061.0518-.6191.0859-1.0322.0859-1.833 0-2.5479-.6885-2.5479-2.4443v-5.1895h-1.3164v-1.4717h1.3164v-2.1426h1.8672z"/><path d="m145.4125 14.6033c2.0059 0 3.4424 1.1094 3.4854 2.71h-1.7471c-.0771-.7998-.7568-1.29-1.79-1.29-1.0068 0-1.6777.4639-1.6777 1.1699 0 .542.4473.9033 1.3857 1.1357l1.5234.3535c1.8242.4385 2.5127 1.1094 2.5127 2.4355 0 1.6348-1.5488 2.7539-3.7607 2.7539-2.1348 0-3.5713-1.0938-3.709-2.7461h1.8408c.1299.8691.8262 1.334 1.9541 1.334 1.1104 0 1.8076-.4561 1.8076-1.1787 0-.5596-.3447-.8604-1.291-1.1016l-1.6182-.3955c-1.6357-.3965-2.4619-1.2314-2.4619-2.4873 0-1.6005 1.4375-2.6933 3.5459-2.6933z"/><path clip-rule="evenodd" d="m24.6653 21.8098c-.2446.6213-.809 1.4961-1.6094 2.1124-.4621.3559-1.0138.6961-1.7716.9206-.8078.2394-1.8028.3203-3.0412.3203h-11.3233c-1.2383 0-2.2333-.0809-3.0412-.3203-.7578-.2245-1.3094-.5647-1.7716-.9206-.8003-.6163-1.3648-1.491-1.6094-2.1124-.4926-1.2518-.4976-2.6722-.4976-3.5666v-11.3234c0-.8944.005-2.3148.4977-3.5666.2446-.6213.809-1.4961 1.6094-2.1123.4621-.3559 1.0138-.6961 1.7715-.9206.8079-.2394 1.8029-.3203 3.0412-.3203h11.3234c1.2383 0 2.2333.0809 3.0412.3203.7578.2245 1.3094.5648 1.7716.9206.8003.6163 1.3648 1.491 1.6094 2.1123.4926 1.2518.4976 2.6722.4976 3.5666v11.3233c0 .8945-.005 2.3149-.4977 3.5667z" fill="url(#a)" fill-rule="evenodd"/><path clip-rule="evenodd" d="m24.6653 21.8098c-.2446.6213-.809 1.4961-1.6094 2.1124-.4621.3559-1.0138.6961-1.7716.9206-.8078.2394-1.8028.3203-3.0412.3203h-11.3233c-1.2383 0-2.2333-.0809-3.0412-.3203-.7578-.2245-1.3094-.5647-1.7716-.9206-.8003-.6163-1.3648-1.491-1.6094-2.1124-.4926-1.2518-.4976-2.6722-.4976-3.5666v-11.3234c0-.8944.005-2.3148.4977-3.5666.2446-.6213.809-1.4961 1.6094-2.1123.4621-.3559 1.0138-.6961 1.7715-.9206.8079-.2394 1.8029-.3203 3.0412-.3203h11.3234c1.2383 0 2.2333.0809 3.0412.3203.7578.2245 1.3094.5648 1.7716.9206.8003.6163 1.3648 1.491 1.6094 2.1123.4926 1.2518.4976 2.6722.4976 3.5666v11.3233c0 .8945-.005 2.3149-.4977 3.5667z" fill="none"/><path d="m14.4064 14.4632c-.3776-.3983-1.0407-.6537-1.8237-.6537s-1.4462.2554-1.8237.6537c-.1971.2079-.3013.421-.3341.7246-.0636.588-.0279 1.0941.041 1.9035.0656.7712.1902 1.7996.3528 2.847.1157.7454.2098 1.1477.2954 1.4359.1387.4669.6575.8752 1.4686.8752s1.3298-.4084 1.4686-.8752c.0856-.2881.1796-.6904.2953-1.4359.1626-1.0474.2872-2.0757.3528-2.847.0689-.8094.1046-1.3156.041-1.9035-.0328-.3036-.137-.5166-.334-.7246zm-3.8811-3.5473c0 1.1374.922 2.0594 2.0593 2.0594 1.1374 0 2.0594-.922 2.0594-2.0594 0-1.1373-.922-2.0594-2.0594-2.0594-1.1373 0-2.0593.9221-2.0593 2.0594zm2.0338-8.1271c-4.8163.0137-8.7628 3.921-8.8224 8.737-.0483 3.9013 2.442 7.2385 5.9195 8.4617.0844.0297.1701-.0403.1568-.1289-.0455-.3028-.0886-.6073-.1281-.9066-.014-.1058-.0814-.197-.1791-.2397-2.7486-1.2008-4.6679-3.9575-4.6371-7.1505.0404-4.1905 3.4622-7.6067 7.6526-7.6406 4.2839-.0346 7.78 3.4402 7.78 7.7162 0 3.1611-1.9109 5.8839-4.6381 7.0751-.0977.0427-.1647.1342-.1786.2398-.0395.2992-.0825.6035-.128.9062-.0133.0885.0723.1586.1567.1289 3.4443-1.2115 5.9202-4.4968 5.9202-8.35-.0001-4.8876-3.9835-8.8624-8.8744-8.8486zm-.1599 4.0597c2.7303-.1058 4.9852 2.0847 4.9852 4.7919 0 1.3768-.5834 2.6198-1.5157 3.4952-.079.0742-.1216.1796-.1155.2878.0186.3294.0118.6493-.0101 1.0107-.0059.0963.1021.1578.1818.1034 1.5634-1.0684 2.5917-2.8648 2.5917-4.8972 0-3.3464-2.7874-6.0541-6.1623-5.9233-3.1364.1215-5.6527 2.7075-5.6929 5.846-.0264 2.0643 1.0082 3.8929 2.5917 4.9748.0795.0543.1872-.0074.1813-.1035-.022-.3616-.0287-.6816-.0102-1.0109.0061-.1081-.0362-.2134-.1152-.2876-.9614-.9026-1.5518-2.1962-1.5142-3.6241.0662-2.5131 2.0923-4.5659 4.6044-4.6632z" fill="#fff"/><path d="m31.5258 5.9099c.0796.5742.6421.9395 1.4517.9395.7554 0 1.3096-.3906 1.3096-.9277 0-.4609-.3525-.7383-1.1543-.9268l-.7803-.1895c-1.0952-.2559-1.5947-.7842-1.5947-1.6738 0-1.0781.8813-1.7959 2.2031-1.7959 1.2295 0 2.1274.7178 2.1821 1.7373h-.915c-.0879-.5586-.5747-.9062-1.2798-.9062-.7427 0-1.2378.3564-1.2378.9023 0 .4316.3188.6797 1.1079.8643l.667.1631c1.2422.29 1.7539.793 1.7539 1.7041 0 1.1582-.8979 1.8838-2.333 1.8838-1.3428 0-2.2446-.6924-2.312-1.7744h.9316z"/><path d="m37.9682 3.8953-.5332.2724v3.3701h-.9019v-2.9042l-.5288.2734v-.7139l.5288-.2725v-2.7363h.9019v2.2705l.5332-.2725z"/><path d="m42.7646 7.5379h-.8687v-.7266h-.0713c-.2227.5205-.6885.8145-1.3809.8145-1.0112 0-1.5732-.6172-1.5732-1.6914v-2.9668h.9019v2.7324c0 .7383.2983 1.0908.9609 1.0908.7305 0 1.1289-.4326 1.1289-1.1494v-2.6738h.9023v4.5703z"/><path d="m47.1889 4.4617c-.105-.4443-.4741-.7764-1.0786-.7764-.7554 0-1.2168.5791-1.2168 1.5527 0 .9902.4658 1.582 1.2168 1.582.5708 0 .9609-.2598 1.0786-.751h.877c-.1177.9189-.8223 1.5566-1.9512 1.5566-1.3301 0-2.144-.8984-2.144-2.3877 0-1.4648.8096-2.3584 2.1396-2.3584 1.1455 0 1.8379.667 1.9556 1.582h-.877z"/><path d="m49.2597 1.1843h.8936v2.5176h.0713c.2227-.5117.7051-.8174 1.3931-.8174.9736 0 1.5737.6162 1.5737 1.7031v2.9502h-.9024v-2.7275c0-.7305-.3398-1.0996-.9775-1.0996-.7388 0-1.1499.4658-1.1499 1.1582v2.6689h-.9019z"/><path d="m54.3217 6.2449c0-.8223.6123-1.2959 1.6992-1.3633l1.2378-.0713v-.3945c0-.4824-.3188-.7559-.9355-.7559-.5034 0-.8521.1855-.9526.5078h-.8726c.0923-.7842.8306-1.2881 1.8672-1.2881 1.1455 0 1.7915.5713 1.7915 1.5361v3.1221h-.8682v-.6425h-.0713c-.2729.458-.7725.7178-1.3726.7178-.8808 0-1.5229-.5332-1.5229-1.3682zm2.937-.3897v-.3818l-1.1157.0713c-.6299.042-.915.2559-.915.6582 0 .4111.3569.6504.8477.6504.6796 0 1.183-.4316 1.183-.9981z"/><path d="m60.4789 7.7263c0 .9355-.4824 1.3721-1.4727 1.3721-.0337 0-.1807 0-.2017-.0039v-.7559h.126c.4824 0 .6504-.1797.6504-.6201v-4.751h.8979v4.7588zm-1.0322-6.1093c0-.3145.2476-.5537.5835-.5537.3354 0 .583.2393.583.5537 0 .3105-.2476.5498-.583.5498-.3359 0-.5835-.2393-.5835-.5498z"/><path d="m69.103 7.5379h-.9355l-.9443-3.3652h-.0713l-.9399 3.3652h-.9272l-1.2588-4.5703h.9146l.8184 3.4873h.0669l.9399-3.4873h.8647l.9399 3.4873h.0713l.814-3.4873h.9023z"/></svg>